<mxfile host="app.diagrams.net" modified="2022-06-07T10:46:18.283Z" agent="5.0 (Windows NT 10.0; Win64; x64) AppleWebKit/537.36 (KHTML, like Gecko) Chrome/101.0.0.0 Safari/537.36" etag="ZaDrvMiW4p6GXLcqLkPD" version="19.0.0" type="github">
  <diagram id="-wRhqL7od4DHLkyjhyIS" name="第 1 页">
    <mxGraphModel dx="2028" dy="764" grid="1" gridSize="10" guides="1" tooltips="1" connect="1" arrows="1" fold="1" page="1" pageScale="1" pageWidth="827" pageHeight="1169" math="0" shadow="0">
      <root>
        <mxCell id="0" />
        <mxCell id="1" parent="0" />
        <mxCell id="xj4mAx2ZfgTTv6WEjQ0I-3" style="edgeStyle=orthogonalEdgeStyle;rounded=0;orthogonalLoop=1;jettySize=auto;html=1;fontSize=14;" parent="1" source="xj4mAx2ZfgTTv6WEjQ0I-1" target="xj4mAx2ZfgTTv6WEjQ0I-2" edge="1">
          <mxGeometry relative="1" as="geometry" />
        </mxCell>
        <mxCell id="xj4mAx2ZfgTTv6WEjQ0I-1" value="线索跟进" style="ellipse;whiteSpace=wrap;html=1;strokeWidth=2;fontSize=14;" parent="1" vertex="1">
          <mxGeometry x="320" y="10" width="120" height="80" as="geometry" />
        </mxCell>
        <mxCell id="xj4mAx2ZfgTTv6WEjQ0I-5" style="edgeStyle=orthogonalEdgeStyle;rounded=0;orthogonalLoop=1;jettySize=auto;html=1;fontSize=14;" parent="1" source="xj4mAx2ZfgTTv6WEjQ0I-2" target="xj4mAx2ZfgTTv6WEjQ0I-4" edge="1">
          <mxGeometry relative="1" as="geometry" />
        </mxCell>
        <mxCell id="xj4mAx2ZfgTTv6WEjQ0I-17" style="edgeStyle=orthogonalEdgeStyle;rounded=0;orthogonalLoop=1;jettySize=auto;html=1;fontSize=14;" parent="1" source="xj4mAx2ZfgTTv6WEjQ0I-2" target="xj4mAx2ZfgTTv6WEjQ0I-16" edge="1">
          <mxGeometry relative="1" as="geometry" />
        </mxCell>
        <mxCell id="xj4mAx2ZfgTTv6WEjQ0I-2" value="表设计" style="rounded=1;whiteSpace=wrap;html=1;fontSize=14;strokeWidth=2;fillColor=#ffff88;strokeColor=#36393d;" parent="1" vertex="1">
          <mxGeometry x="320" y="150" width="120" height="60" as="geometry" />
        </mxCell>
        <mxCell id="xj4mAx2ZfgTTv6WEjQ0I-9" style="edgeStyle=orthogonalEdgeStyle;rounded=0;orthogonalLoop=1;jettySize=auto;html=1;entryX=0.5;entryY=0;entryDx=0;entryDy=0;fontSize=14;" parent="1" source="xj4mAx2ZfgTTv6WEjQ0I-4" target="xj4mAx2ZfgTTv6WEjQ0I-8" edge="1">
          <mxGeometry relative="1" as="geometry" />
        </mxCell>
        <mxCell id="xj4mAx2ZfgTTv6WEjQ0I-11" style="edgeStyle=orthogonalEdgeStyle;rounded=0;orthogonalLoop=1;jettySize=auto;html=1;fontSize=14;" parent="1" source="xj4mAx2ZfgTTv6WEjQ0I-4" edge="1">
          <mxGeometry relative="1" as="geometry">
            <mxPoint x="160" y="110" as="targetPoint" />
          </mxGeometry>
        </mxCell>
        <mxCell id="xj4mAx2ZfgTTv6WEjQ0I-15" style="edgeStyle=orthogonalEdgeStyle;rounded=0;orthogonalLoop=1;jettySize=auto;html=1;entryX=1;entryY=0.5;entryDx=0;entryDy=0;fontSize=14;" parent="1" source="xj4mAx2ZfgTTv6WEjQ0I-4" target="xj4mAx2ZfgTTv6WEjQ0I-14" edge="1">
          <mxGeometry relative="1" as="geometry" />
        </mxCell>
        <mxCell id="xj4mAx2ZfgTTv6WEjQ0I-4" value="粗粒度设计" style="rounded=0;whiteSpace=wrap;html=1;fontSize=14;strokeWidth=2;" parent="1" vertex="1">
          <mxGeometry x="100" y="150" width="120" height="60" as="geometry" />
        </mxCell>
        <mxCell id="xj4mAx2ZfgTTv6WEjQ0I-13" style="edgeStyle=orthogonalEdgeStyle;rounded=0;orthogonalLoop=1;jettySize=auto;html=1;fontSize=14;" parent="1" source="xj4mAx2ZfgTTv6WEjQ0I-8" target="xj4mAx2ZfgTTv6WEjQ0I-12" edge="1">
          <mxGeometry relative="1" as="geometry" />
        </mxCell>
        <mxCell id="xj4mAx2ZfgTTv6WEjQ0I-8" value="细粒度设计" style="rounded=0;whiteSpace=wrap;html=1;fontSize=14;strokeWidth=2;" parent="1" vertex="1">
          <mxGeometry x="-10" y="270" width="120" height="60" as="geometry" />
        </mxCell>
        <mxCell id="xj4mAx2ZfgTTv6WEjQ0I-10" value="跟进记录&lt;br&gt;下次跟进时间" style="rounded=0;whiteSpace=wrap;html=1;fontSize=14;strokeWidth=2;" parent="1" vertex="1">
          <mxGeometry x="100" y="30" width="120" height="80" as="geometry" />
        </mxCell>
        <mxCell id="xj4mAx2ZfgTTv6WEjQ0I-12" value="表关联关系" style="rounded=1;whiteSpace=wrap;html=1;fontSize=14;strokeWidth=2;" parent="1" vertex="1">
          <mxGeometry x="-10" y="360" width="120" height="60" as="geometry" />
        </mxCell>
        <mxCell id="xj4mAx2ZfgTTv6WEjQ0I-14" value="是否需要拆分" style="rounded=1;whiteSpace=wrap;html=1;fontSize=14;strokeWidth=2;" parent="1" vertex="1">
          <mxGeometry x="-80" y="150" width="120" height="60" as="geometry" />
        </mxCell>
        <mxCell id="xj4mAx2ZfgTTv6WEjQ0I-22" style="edgeStyle=orthogonalEdgeStyle;rounded=0;orthogonalLoop=1;jettySize=auto;html=1;entryX=0;entryY=0.5;entryDx=0;entryDy=0;fontSize=14;" parent="1" source="xj4mAx2ZfgTTv6WEjQ0I-16" target="xj4mAx2ZfgTTv6WEjQ0I-19" edge="1">
          <mxGeometry relative="1" as="geometry" />
        </mxCell>
        <mxCell id="xj4mAx2ZfgTTv6WEjQ0I-23" style="edgeStyle=orthogonalEdgeStyle;rounded=0;orthogonalLoop=1;jettySize=auto;html=1;entryX=0;entryY=0.5;entryDx=0;entryDy=0;fontSize=14;" parent="1" source="xj4mAx2ZfgTTv6WEjQ0I-16" target="xj4mAx2ZfgTTv6WEjQ0I-20" edge="1">
          <mxGeometry relative="1" as="geometry" />
        </mxCell>
        <mxCell id="xj4mAx2ZfgTTv6WEjQ0I-24" style="edgeStyle=orthogonalEdgeStyle;rounded=0;orthogonalLoop=1;jettySize=auto;html=1;entryX=0;entryY=0.5;entryDx=0;entryDy=0;fontSize=14;" parent="1" source="xj4mAx2ZfgTTv6WEjQ0I-16" target="xj4mAx2ZfgTTv6WEjQ0I-21" edge="1">
          <mxGeometry relative="1" as="geometry" />
        </mxCell>
        <mxCell id="xj4mAx2ZfgTTv6WEjQ0I-26" style="edgeStyle=orthogonalEdgeStyle;rounded=0;orthogonalLoop=1;jettySize=auto;html=1;entryX=0;entryY=0.5;entryDx=0;entryDy=0;fontSize=14;" parent="1" source="xj4mAx2ZfgTTv6WEjQ0I-16" target="xj4mAx2ZfgTTv6WEjQ0I-25" edge="1">
          <mxGeometry relative="1" as="geometry" />
        </mxCell>
        <mxCell id="xj4mAx2ZfgTTv6WEjQ0I-28" style="edgeStyle=orthogonalEdgeStyle;rounded=0;orthogonalLoop=1;jettySize=auto;html=1;entryX=0.5;entryY=0;entryDx=0;entryDy=0;fontSize=14;" parent="1" source="xj4mAx2ZfgTTv6WEjQ0I-16" target="xj4mAx2ZfgTTv6WEjQ0I-27" edge="1">
          <mxGeometry relative="1" as="geometry" />
        </mxCell>
        <mxCell id="xj4mAx2ZfgTTv6WEjQ0I-34" style="edgeStyle=orthogonalEdgeStyle;rounded=0;orthogonalLoop=1;jettySize=auto;html=1;entryX=0.5;entryY=0;entryDx=0;entryDy=0;fontSize=14;" parent="1" source="xj4mAx2ZfgTTv6WEjQ0I-16" target="xj4mAx2ZfgTTv6WEjQ0I-33" edge="1">
          <mxGeometry relative="1" as="geometry" />
        </mxCell>
        <mxCell id="xj4mAx2ZfgTTv6WEjQ0I-16" value="接口确定" style="rounded=1;whiteSpace=wrap;html=1;fontSize=14;strokeWidth=2;fillColor=#ffcc99;strokeColor=#36393d;" parent="1" vertex="1">
          <mxGeometry x="320" y="310" width="120" height="60" as="geometry" />
        </mxCell>
        <mxCell id="xj4mAx2ZfgTTv6WEjQ0I-19" value="入参" style="rounded=1;whiteSpace=wrap;html=1;fontSize=14;strokeWidth=2;" parent="1" vertex="1">
          <mxGeometry x="590" y="220" width="120" height="60" as="geometry" />
        </mxCell>
        <mxCell id="xj4mAx2ZfgTTv6WEjQ0I-20" value="返回值" style="rounded=1;whiteSpace=wrap;html=1;fontSize=14;strokeWidth=2;" parent="1" vertex="1">
          <mxGeometry x="590" y="310" width="120" height="60" as="geometry" />
        </mxCell>
        <mxCell id="xj4mAx2ZfgTTv6WEjQ0I-21" value="数量" style="rounded=1;whiteSpace=wrap;html=1;fontSize=14;strokeWidth=2;" parent="1" vertex="1">
          <mxGeometry x="590" y="400" width="120" height="60" as="geometry" />
        </mxCell>
        <mxCell id="xj4mAx2ZfgTTv6WEjQ0I-25" value="请求方式" style="rounded=1;whiteSpace=wrap;html=1;fontSize=14;strokeWidth=2;" parent="1" vertex="1">
          <mxGeometry x="590" y="500" width="120" height="60" as="geometry" />
        </mxCell>
        <mxCell id="xj4mAx2ZfgTTv6WEjQ0I-30" style="edgeStyle=orthogonalEdgeStyle;rounded=0;orthogonalLoop=1;jettySize=auto;html=1;entryX=1;entryY=0.5;entryDx=0;entryDy=0;fontSize=14;" parent="1" source="xj4mAx2ZfgTTv6WEjQ0I-27" target="xj4mAx2ZfgTTv6WEjQ0I-29" edge="1">
          <mxGeometry relative="1" as="geometry" />
        </mxCell>
        <mxCell id="xj4mAx2ZfgTTv6WEjQ0I-32" style="edgeStyle=orthogonalEdgeStyle;rounded=0;orthogonalLoop=1;jettySize=auto;html=1;entryX=1;entryY=0.5;entryDx=0;entryDy=0;fontSize=14;" parent="1" source="xj4mAx2ZfgTTv6WEjQ0I-27" target="xj4mAx2ZfgTTv6WEjQ0I-31" edge="1">
          <mxGeometry relative="1" as="geometry" />
        </mxCell>
        <mxCell id="xj4mAx2ZfgTTv6WEjQ0I-27" value="伪线索上报" style="rounded=1;whiteSpace=wrap;html=1;fontSize=14;strokeWidth=2;" parent="1" vertex="1">
          <mxGeometry x="160" y="430" width="120" height="60" as="geometry" />
        </mxCell>
        <mxCell id="xj4mAx2ZfgTTv6WEjQ0I-29" value="修改线索状态" style="rounded=1;whiteSpace=wrap;html=1;fontSize=14;strokeWidth=2;" parent="1" vertex="1">
          <mxGeometry x="-10" y="525" width="120" height="60" as="geometry" />
        </mxCell>
        <mxCell id="xj4mAx2ZfgTTv6WEjQ0I-31" value="新增跟进记录" style="rounded=1;whiteSpace=wrap;html=1;fontSize=14;strokeWidth=2;" parent="1" vertex="1">
          <mxGeometry x="-10" y="620" width="120" height="60" as="geometry" />
        </mxCell>
        <mxCell id="xj4mAx2ZfgTTv6WEjQ0I-36" style="edgeStyle=orthogonalEdgeStyle;rounded=0;orthogonalLoop=1;jettySize=auto;html=1;entryX=0.5;entryY=0;entryDx=0;entryDy=0;fontSize=14;" parent="1" source="xj4mAx2ZfgTTv6WEjQ0I-33" target="xj4mAx2ZfgTTv6WEjQ0I-35" edge="1">
          <mxGeometry relative="1" as="geometry" />
        </mxCell>
        <mxCell id="xj4mAx2ZfgTTv6WEjQ0I-38" style="edgeStyle=orthogonalEdgeStyle;rounded=0;orthogonalLoop=1;jettySize=auto;html=1;fontSize=14;" parent="1" source="xj4mAx2ZfgTTv6WEjQ0I-33" target="xj4mAx2ZfgTTv6WEjQ0I-37" edge="1">
          <mxGeometry relative="1" as="geometry" />
        </mxCell>
        <mxCell id="xj4mAx2ZfgTTv6WEjQ0I-33" value="x线索转商机" style="rounded=1;whiteSpace=wrap;html=1;fontSize=14;strokeWidth=2;" parent="1" vertex="1">
          <mxGeometry x="320" y="430" width="120" height="60" as="geometry" />
        </mxCell>
        <mxCell id="xj4mAx2ZfgTTv6WEjQ0I-35" value="修改线索状态" style="rounded=1;whiteSpace=wrap;html=1;fontSize=14;strokeWidth=2;" parent="1" vertex="1">
          <mxGeometry x="250" y="560" width="120" height="60" as="geometry" />
        </mxCell>
        <mxCell id="xj4mAx2ZfgTTv6WEjQ0I-37" value="新增一条商机" style="rounded=1;whiteSpace=wrap;html=1;fontSize=14;strokeWidth=2;" parent="1" vertex="1">
          <mxGeometry x="410" y="560" width="120" height="60" as="geometry" />
        </mxCell>
      </root>
    </mxGraphModel>
  </diagram>
</mxfile>
